<?xml version="1.0" encoding="UTF-8"?>
<!-- Created with Inkscape (http://www.inkscape.org/) -->
<svg width="512" height="512" version="1.1" viewBox="0 0 512 512" xmlns="http://www.w3.org/2000/svg">
 <path d="m188.77 434.17c7.3291-27.353 34.703-38.422 44.506-66.617 9.8037-28.195-22.81-67.765-12.16-97.952 10.65-30.187 56.708-46.914 72.589-71.625 15.881-24.711 18.156-50.193 25.464-71.959 7.3076-21.765 7.6796 3.6911 42.544-7.3 15.582-20.451 0.98334-115.28 0.98334-115.28s-91.15 42.246-104.21 66.026c5.5758 28.924 31.361 16.332 24.744 36.607-6.6171 20.275-4.5916 44.729-20.922 72.585-16.33 27.856-64.784 46.238-77.716 79.117-12.933 32.879 16.113 65.403 9.6858 96.491-6.427 31.087-43.038 51.241-47.577 79.095-4.54 27.854-9.4002 75.196 16.688 75.196 26.088 0 18.056-47.031 25.385-74.384z" fill="#61f27e" stroke="#5bdb4d" stroke-linecap="round" stroke-linejoin="round" stroke-width="6.7471"/>
</svg>
